<?xml version="1.0" encoding="utf-8"?>
<!-- Generator: Adobe Illustrator 25.1.0, SVG Export Plug-In . SVG Version: 6.00 Build 0)  -->
<svg version="1.1" id="Capa_1" xmlns="http://www.w3.org/2000/svg" xmlns:xlink="http://www.w3.org/1999/xlink" x="0px" y="0px"
	 viewBox="0 0 90 90" style="enable-background:new 0 0 90 90;" xml:space="preserve">
<style type="text/css">
	.st0{fill:#FFFFFF;}
</style>
<g>
	<line class="st0" x1="15.5" y1="21" x2="74.5" y2="21"/>
	<path d="M78.3,41.6H52.7c0,0,0,0,0,0c-1.3-3.1-4.4-5.2-7.9-5.2c-3.5,0-6.6,2.1-7.9,5.2H11.7c-1.9,0-3.5,1.6-3.5,3.5
		c0,1.9,1.6,3.5,3.5,3.5h25.1c1.3,3,4.4,5.1,7.9,5.1c3.5,0,6.5-2.1,7.9-5.1c0,0,0.1,0,0.1,0h25.6c1.9,0,3.5-1.6,3.5-3.5
		C81.8,43.1,80.2,41.6,78.3,41.6z M44.7,49c-2.2,0-4-1.8-4-4s1.8-4,4-4c2.2,0,4,1.8,4,4S46.9,49,44.7,49z"/>
	<path d="M77.6,66.6H32.5c-1.3-3.1-4.4-5.2-7.9-5.2s-6.6,2.1-7.9,5.2h-4.3c-1.9,0-3.5,1.6-3.5,3.5c0,1.9,1.6,3.5,3.5,3.5h4.3
		c1.3,3,4.4,5.1,7.9,5.1s6.5-2.1,7.9-5.1h45.2c1.9,0,3.5-1.6,3.5-3.5C81.1,68.1,79.5,66.6,77.6,66.6z M24.6,74c-2.2,0-4-1.8-4-4
		s1.8-4,4-4s4,1.8,4,4S26.8,74,24.6,74z"/>
	<path d="M78.3,16.6H72c-1.3-3.1-4.4-5.2-7.9-5.2c-3.5,0-6.6,2.1-7.9,5.2H11.7c-1.9,0-3.5,1.6-3.5,3.5c0,1.9,1.6,3.5,3.5,3.5h44.5
		c1.3,3,4.4,5.1,7.9,5.1c3.5,0,6.5-2.1,7.9-5.1h6.3c1.9,0,3.5-1.6,3.5-3.5C81.8,18.2,80.2,16.6,78.3,16.6z M64.1,24
		c-2.2,0-4-1.8-4-4s1.8-4,4-4c2.2,0,4,1.8,4,4S66.3,24,64.1,24z"/>
</g>
</svg>
